PathFileType	4	(X/Y/Z)	./resultDataOpenSim/trcMotMarkerGrf/sub06/qtm-04-01.trc
DataRate	CameraRate	NumFrames	NumMarkers	Units	OrigDataRate	OrigDataStartFrame	OrigNumFrames
250.000000	250.000000	13	24	m	250.000000	321	513
Frame#	Time	L.Toe.Tip			R.Toe.Tip			L.Ankle.Lat			R.Ankle.Lat			L.Ankle.Med			R.Ankle.Med			L.Heel			R.Heel			L.Knee.Lat			R.Knee.Lat			L.Knee.Med			R.Knee.Med			L.Thigh.Upper			R.Thigh.Upper			L.ASIS			R.ASIS			V.Sacral			L.Acromium			R.Acromium			C7			L.Elbow			R.Elbow			L.Wrist.Lat			R.Wrist.Lat
		X1	Y1	Z1	X2	Y2	Z2	X3	Y3	Z3	X4	Y4	Z4	X5	Y5	Z5	X6	Y6	Z6	X7	Y7	Z7	X8	Y8	Z8	X9	Y9	Z9	X10	Y10	Z10	X11	Y11	Z11	X12	Y12	Z12	X13	Y13	Z13	X14	Y14	Z14	X15	Y15	Z15	X16	Y16	Z16	X17	Y17	Z17	X18	Y18	Z18	X19	Y19	Z19	X20	Y20	Z20	X21	Y21	Z21	X22	Y22	Z22	X23	Y23	Z23	X24	Y24	Z24

321	1.28	0.42602335	0.11145554	-0.040959198	0.88552124	0.035626824	0.13244816	0.42773225	0.24278737	-0.067831377	0.74913851	0.060666649	0.15458789	0.45190842	0.24553132	0.013518965	0.77079333	0.081680331	0.067410621	0.38301527	0.29903582	-0.01474536	0.69436075	0.040456759	0.094893274	0.76760761	0.39102242	-0.11136118	0.85278687	0.4342466	0.19239617	0.77758498	0.37400405	0.010962296	0.81607888	0.42750273	0.070545008	0.67594334	0.77494685	-0.084255362	0.73579348	0.79240992	0.25451223	0.76072434	0.82288715	-0.056054223	0.81270827	0.8386788	0.18493141	0.60158812	0.91342814	0.10181719	0.7402759	1.3198705	-0.10151819	0.76594791	1.2967601	0.25966081	0.67775183	1.3504255	0.085120477	0.71024071	0.99561931	-0.168119	0.65316418	1.0049108	0.3328432	0.90951579	0.84750222	-0.1504951	0.78023107	0.7996327	0.37860736
322	1.284	0.44094685	0.11332898	-0.041598539	0.88549397	0.035638531	0.13246866	0.44099539	0.24467797	-0.067912308	0.74909576	0.060751819	0.15472266	0.46520765	0.24739859	0.013428929	0.77074507	0.081879558	0.067520092	0.39559604	0.30026287	-0.014577958	0.69431263	0.040677591	0.09481118	0.77988157	0.39497377	-0.11112995	0.85316496	0.43452705	0.19236627	0.78978224	0.37795083	0.011460831	0.81608109	0.42778395	0.070586163	0.68320785	0.77786091	-0.084486209	0.741067	0.79431463	0.25463309	0.76737316	0.82565174	-0.055519241	0.81826156	0.84102701	0.18560299	0.60552935	0.91616198	0.10223452	0.74562055	1.3224696	-0.10149008	0.77230787	1.2995673	0.25948194	0.6835488	1.3528462	0.085275095	0.71361251	0.99889404	-0.16788879	0.66113259	1.007098	0.33343759	0.91104966	0.84842497	-0.15190729	0.79134994	0.80327431	0.37767883
323	1.288	0.45600033	0.11498896	-0.042290249	0.88549111	0.035656135	0.13247093	0.45430252	0.2463127	-0.067962124	0.74909565	0.060819018	0.15483662	0.47843237	0.24901976	0.013451647	0.77070122	0.082108083	0.067634124	0.40819156	0.30119967	-0.01437886	0.69429683	0.04091462	0.094621134	0.79205843	0.39897633	-0.11088246	0.85354204	0.43482091	0.19234395	0.80177247	0.38198767	0.012050857	0.81617894	0.42806582	0.070556333	0.69059192	0.78076956	-0.084896864	0.74639584	0.79618132	0.25476751	0.77432683	0.82850295	-0.054836902	0.82381095	0.84333892	0.18622365	0.61038313	0.91859523	0.10209663	0.75094375	1.3250268	-0.1014395	0.77865357	1.3023414	0.25930459	0.68934097	1.3552256	0.085430702	0.7168116	1.0020593	-0.16743125	0.6690714	1.0092686	0.33403053	0.91254035	0.84932059	-0.15334472	0.80242641	0.80695251	0.37673985
324	1.292	0.47118796	0.11643355	-0.043041121	0.88550198	0.035676194	0.13246127	0.46763076	0.24769655	-0.067983387	0.74910826	0.060865055	0.15493197	0.49165364	0.25040057	0.01351457	0.77066476	0.082358836	0.067757576	0.42080315	0.30184327	-0.014162889	0.69429355	0.041150534	0.094470066	0.80413238	0.40301907	-0.11062752	0.85391327	0.43512706	0.19234087	0.81351171	0.3861229	0.012735431	0.81635901	0.42836458	0.070441987	0.69801565	0.78368885	-0.085242092	0.75176852	0.7980048	0.25489634	0.78151878	0.83141032	-0.054036177	0.82935265	0.8456044	0.18679931	0.6167212	0.92058504	0.10116853	0.7562573	1.3275356	-0.10138035	0.7849794	1.3050734	0.25912416	0.69513404	1.3575464	0.085574189	0.71982702	1.0050949	-0.16677291	0.67696639	1.0114045	0.33461617	0.91399007	0.85018246	-0.15482185	0.81346616	0.81065947	0.37579175
325	1.296	0.48649891	0.11766084	-0.043836767	0.88550915	0.035692543	0.13245127	0.48097869	0.24882584	-0.0679804	0.74912729	0.060905912	0.15500808	0.50499307	0.25154603	0.013531094	0.77063203	0.082624719	0.067894833	0.43342589	0.3021826	-0.013940244	0.69429092	0.041378399	0.094433501	0.81612143	0.40707324	-0.1103317	0.85426734	0.43543663	0.19235006	0.82507495	0.3903355	0.013480884	0.81643425	0.42872599	0.070310168	0.70540461	0.78661156	-0.085341609	0.75720543	0.79977075	0.25498677	0.78877985	0.83430027	-0.053223479	0.83488678	0.84781667	0.18733755	0.62366155	0.92237051	0.099938457	0.76156375	1.3299902	-0.10131734	0.79127823	1.3077546	0.25893812	0.70092102	1.3597978	0.085702065	0.72267599	1.0080257	-0.16596208	0.68480656	1.0134928	0.33519248	0.91540905	0.85101091	-0.15633594	0.82447204	0.81438605	0.37483559
326	1.3	0.50192074	0.11866786	-0.044651424	0.88550704	0.035703937	0.13244496	0.49438267	0.2496824	-0.067972283	0.74916095	0.060973543	0.1550667	0.51852285	0.25245651	0.013461848	0.77060767	0.082900501	0.068036818	0.4460507	0.30221237	-0.013718526	0.69429149	0.041605245	0.094477526	0.82808239	0.41109623	-0.10991365	0.85458832	0.43573969	0.19234774	0.83659741	0.39458739	0.014243157	0.81635247	0.42918747	0.070204467	0.71276634	0.78949553	-0.085311236	0.7627566	0.80147327	0.25501621	0.79595681	0.83712505	-0.052487346	0.84041789	0.84996911	0.1878471	0.63066876	0.92415685	0.098785087	0.76686203	1.3323877	-0.1012537	0.79755037	1.3103837	0.25874894	0.70669265	1.3619792	0.085821916	0.72537802	1.0108911	-0.16504349	0.69260256	1.0155362	0.33576919	0.91681319	0.85181267	-0.15786869	0.83544046	0.81812656	0.373869
327	1.304	0.51745387	0.11944857	-0.045472618	0.8855034	0.035714095	0.13243981	0.50788986	0.25025994	-0.067993014	0.74920879	0.061090863	0.1551112	0.53213272	0.25312296	0.013367646	0.77060169	0.083184289	0.068170348	0.45868798	0.30193686	-0.013503462	0.69430461	0.041842397	0.094533615	0.84005424	0.41506961	-0.10932843	0.85487134	0.43603922	0.1923095	0.84815499	0.3988493	0.015002663	0.81624822	0.42973867	0.070072069	0.7201496	0.79229975	-0.085419418	0.76840959	0.80310638	0.25498181	0.80283807	0.83987764	-0.051887322	0.84595089	0.85205495	0.18833515	0.63802492	0.92592878	0.097625814	0.7721515	1.3347274	-0.10119246	0.80380446	1.3129628	0.2585608	0.71244669	1.3640975	0.085946783	0.72796396	1.0137264	-0.1640815	0.70037898	1.017545	0.3363614	0.91820992	0.85259618	-0.15940885	0.84636726	0.82188187	0.37288782
328	1.308	0.53311148	0.11999954	-0.046306982	0.88550588	0.03572579	0.13243672	0.52150935	0.25058596	-0.06806606	0.74925789	0.061263002	0.15514505	0.54563303	0.25352403	0.01335727	0.77061751	0.08347758	0.068292742	0.47136939	0.30136345	-0.013304796	0.69433621	0.042096699	0.094559907	0.8519871	0.41901981	-0.10864799	0.85512741	0.43635268	0.19223137	0.85976658	0.40310254	0.015753169	0.8161238	0.43034828	0.069849837	0.72755765	0.79502068	-0.085789882	0.77402443	0.8046515	0.25490605	0.80918681	0.84256967	-0.051388752	0.8514836	0.85406651	0.1888042	0.64534688	0.92772895	0.096625443	0.77743103	1.3370103	-0.10113389	0.81004893	1.3154898	0.2583765	0.71819035	1.3661544	0.086080988	0.73051561	1.0165441	-0.16322313	0.70814643	1.0195171	0.33697292	0.91959149	0.85335762	-0.1609592	0.85725284	0.82565483	0.37189066
329	1.312	0.54888634	0.12033168	-0.0471504	0.8855134	0.03573738	0.13244289	0.53519605	0.25068992	-0.068172209	0.74930356	0.061487154	0.15517148	0.5590201	0.25364472	0.013458654	0.770651	0.083784091	0.068413855	0.48410738	0.3004979	-0.013132873	0.69438022	0.042372747	0.094554216	0.86377288	0.42298505	-0.10800101	0.85536967	0.43669577	0.19213399	0.87140101	0.40733589	0.016493113	0.81594797	0.43099512	0.069545838	0.73493582	0.7976842	-0.08636437	0.77941198	0.80609474	0.25483018	0.81501297	0.84521505	-0.050833121	0.8570074	0.85599696	0.18925334	0.65164239	0.92971483	0.096246261	0.78269856	1.3392346	-0.10107672	0.81628039	1.3179518	0.25819282	0.72393397	1.3681418	0.086216383	0.7331965	1.0193092	-0.16273976	0.71590058	1.0214381	0.3375964	0.92094632	0.85407455	-0.16252068	0.86810306	0.82944319	0.3708818
330	1.316	0.56478507	0.12047314	-0.047994973	0.88551544	0.035744249	0.132469	0.54888838	0.25056666	-0.068261462	0.74935534	0.061754635	0.15519239	0.57244472	0.25350343	0.013606917	0.77070542	0.084108907	0.068540742	0.49687157	0.29934208	-0.012979971	0.69442243	0.04268003	0.09453111	0.87535588	0.42696363	-0.10741908	0.85560245	0.43706816	0.19204476	0.8829796	0.41154538	0.017232208	0.81585055	0.43166016	0.069219601	0.74221445	0.80032433	-0.087049761	0.784467	0.80744013	0.25478732	0.82070935	0.84781616	-0.050139839	0.86251451	0.85784328	0.18968216	0.65657959	0.93193706	0.096564408	0.78795651	1.3413923	-0.10101926	0.8224872	1.3203312	0.25800233	0.72968104	1.3700524	0.086345637	0.73617377	1.0219362	-0.16289074	0.72364293	1.0232951	0.33822529	0.92226951	0.85472991	-0.16408685	0.87892506	0.83323573	0.36986728
331	1.32	0.58090185	0.12045341	-0.048867117	0.88549956	0.035743466	0.13252348	0.56255975	0.25019609	-0.068298615	0.74942437	0.062041689	0.15520394	0.58600906	0.25313405	0.013730643	0.77079772	0.084456294	0.068661212	0.50962363	0.29789411	-0.012822386	0.69446032	0.043026753	0.094493352	0.88676809	0.43091418	-0.10681331	0.85582468	0.43745703	0.19197965	0.89444632	0.41572597	0.017988238	0.81590168	0.43231724	0.06892552	0.74937471	0.80296803	-0.087772842	0.78925865	0.80869653	0.2547772	0.82675082	0.85036076	-0.049427864	0.86800151	0.85960381	0.19009264	0.66072661	0.93425963	0.097207024	0.79321165	1.3434751	-0.10096137	0.82866495	1.3226183	0.25780422	0.73542304	1.3718893	0.086470484	0.73940199	1.0243476	-0.16356893	0.73138632	1.0250819	0.33885581	0.9235631	0.85533349	-0.16565251	0.88972176	0.8370103	0.36884967
332	1.324	0.5973216	0.12027927	-0.049780536	0.88546651	0.035737735	0.13260503	0.57623731	0.24957034	-0.068285371	0.74951905	0.062314655	0.15519559	0.59976282	0.25254444	0.013787007	0.77092732	0.084824289	0.068760419	0.52236421	0.296151	-0.012652899	0.69452084	0.043404974	0.094424038	0.89806044	0.43480295	-0.10611281	0.85603725	0.43785118	0.19194012	0.90580314	0.41986583	0.018779616	0.81607278	0.4329238	0.068680709	0.75651979	0.80561787	-0.08843265	0.79399401	0.80987106	0.25477297	0.83323453	0.85282904	-0.048856038	0.8734696	0.86127567	0.19049014	0.66486656	0.93649245	0.0978139	0.79846649	1.3454794	-0.10090346	0.83481892	1.3248143	0.25760523	0.74114711	1.3736567	0.086595051	0.74254747	1.026547	-0.16417699	0.73914765	1.0267944	0.33948469	0.92483912	0.8559038	-0.1672136	0.90048781	0.84073956	0.36782728
333	1.328	0.61397313	0.11992725	-0.050670403	0.88543354	0.03573333	0.13270465	0.58997538	0.24868868	-0.068250631	0.74964262	0.062560137	0.15516112	0.6137304	0.2517271	0.013765132	0.77106486	0.085203373	0.06884373	0.53514108	0.29411046	-0.012503791	0.69464936	0.043801741	0.094298169	0.90923302	0.43863067	-0.10535614	0.85624259	0.43824899	0.1919192	0.91706083	0.42394913	0.019607739	0.8163884	0.43345735	0.068470009	0.76382595	0.80824199	-0.088908281	0.79882554	0.81096851	0.25475266	0.83992013	0.85520565	-0.04845839	0.87892359	0.86285765	0.19088332	0.66945566	0.93852211	0.098243954	0.80372015	1.347401	-0.10084396	0.840952	1.3269204	0.25740892	0.74684998	1.375348	0.08671773	0.74529246	1.0286153	-0.16411886	0.74693922	1.0284273	0.34011061	0.92611361	0.85644334	-0.16876437	0.9112071	0.8444079	0.36679403
